<svg xmlns="http://www.w3.org/2000/svg" xmlns:xlink="http://www.w3.org/1999/xlink" width="1080" zoomAndPan="magnify" viewBox="0 0 810 809.999993" height="1080" preserveAspectRatio="xMidYMid meet" version="1.2"><defs><clipPath id="fd7b8fbe54"><path d="M 26.476562 274.652344 L 783.523438 274.652344 L 783.523438 535.347656 L 26.476562 535.347656 Z M 26.476562 274.652344 "/></clipPath><clipPath id="db303d8816"><path d="M 450.640625 302.046875 L 740 302.046875 L 740 507.953125 L 450.640625 507.953125 Z M 450.640625 302.046875 "/></clipPath><clipPath id="da5812752f"><path d="M 463.390625 302.046875 L 726.6875 302.046875 C 733.726562 302.046875 739.4375 307.753906 739.4375 314.796875 L 739.4375 495.203125 C 739.4375 502.246094 733.726562 507.953125 726.6875 507.953125 L 463.390625 507.953125 C 456.347656 507.953125 450.640625 502.246094 450.640625 495.203125 L 450.640625 314.796875 C 450.640625 307.753906 456.347656 302.046875 463.390625 302.046875 Z M 463.390625 302.046875 "/></clipPath></defs><g id="4dd37168e2"><rect x="0" width="810" y="0" height="809.999993" style="fill:#ffffff;fill-opacity:1;stroke:none;"/><rect x="0" width="810" y="0" height="809.999993" style="fill:#a6a6a6;fill-opacity:1;stroke:none;"/><g clip-rule="nonzero" clip-path="url(#fd7b8fbe54)"><path style=" stroke:none;fill-rule:nonzero;fill:#010000;fill-opacity:1;" d="M 26.476562 274.652344 L 783.113281 274.652344 L 783.113281 535.347656 L 26.476562 535.347656 Z M 26.476562 274.652344 "/></g><g clip-rule="nonzero" clip-path="url(#db303d8816)"><g clip-rule="nonzero" clip-path="url(#da5812752f)"><path style=" stroke:none;fill-rule:nonzero;fill:#f5961d;fill-opacity:1;" d="M 450.640625 302.046875 L 739.394531 302.046875 L 739.394531 507.953125 L 450.640625 507.953125 Z M 450.640625 302.046875 "/></g></g><g style="fill:#ffffff;fill-opacity:1;"><g transform="translate(66.287499, 458.869741)"><path style="stroke:none" d="M 55.421875 -61.578125 L 98.921875 -61.578125 L 98.921875 -4.71875 C 91.867188 -2.425781 85.226562 -0.816406 79 0.109375 C 72.78125 1.035156 66.421875 1.5 59.921875 1.5 C 43.367188 1.5 30.726562 -3.359375 22 -13.078125 C 13.28125 -22.804688 8.921875 -36.769531 8.921875 -54.96875 C 8.921875 -72.664062 13.984375 -86.460938 24.109375 -96.359375 C 34.234375 -106.265625 48.269531 -111.21875 66.21875 -111.21875 C 77.46875 -111.21875 88.316406 -108.96875 98.765625 -104.46875 L 91.046875 -85.875 C 83.046875 -89.875 74.722656 -91.875 66.078125 -91.875 C 56.023438 -91.875 47.972656 -88.5 41.921875 -81.75 C 35.867188 -75 32.84375 -65.921875 32.84375 -54.515625 C 32.84375 -42.617188 35.28125 -33.53125 40.15625 -27.25 C 45.03125 -20.976562 52.117188 -17.84375 61.421875 -17.84375 C 66.273438 -17.84375 71.203125 -18.34375 76.203125 -19.34375 L 76.203125 -42.21875 L 55.421875 -42.21875 Z M 55.421875 -61.578125 "/></g></g><g style="fill:#ffffff;fill-opacity:1;"><g transform="translate(172.592894, 458.869741)"><path style="stroke:none" d="M 46.71875 -69.140625 C 41.875 -69.140625 38.078125 -67.601562 35.328125 -64.53125 C 32.578125 -61.457031 31 -57.097656 30.59375 -51.453125 L 62.703125 -51.453125 C 62.597656 -57.097656 61.117188 -61.457031 58.265625 -64.53125 C 55.421875 -67.601562 51.570312 -69.140625 46.71875 -69.140625 Z M 49.953125 1.5 C 36.453125 1.5 25.898438 -2.222656 18.296875 -9.671875 C 10.703125 -17.117188 6.90625 -27.671875 6.90625 -41.328125 C 6.90625 -55.367188 10.414062 -66.226562 17.4375 -73.90625 C 24.457031 -81.582031 34.171875 -85.421875 46.578125 -85.421875 C 58.421875 -85.421875 67.640625 -82.046875 74.234375 -75.296875 C 80.835938 -68.546875 84.140625 -59.222656 84.140625 -47.328125 L 84.140625 -36.21875 L 30.078125 -36.21875 C 30.328125 -29.71875 32.25 -24.644531 35.84375 -21 C 39.445312 -17.351562 44.5 -15.53125 51 -15.53125 C 56.050781 -15.53125 60.828125 -16.050781 65.328125 -17.09375 C 69.828125 -18.144531 74.523438 -19.820312 79.421875 -22.125 L 79.421875 -4.421875 C 75.421875 -2.421875 71.144531 -0.9375 66.59375 0.03125 C 62.039062 1.007812 56.492188 1.5 49.953125 1.5 Z M 49.953125 1.5 "/></g></g><g style="fill:#ffffff;fill-opacity:1;"><g transform="translate(258.424024, 458.869741)"><path style="stroke:none" d="M 46.71875 -69.140625 C 41.875 -69.140625 38.078125 -67.601562 35.328125 -64.53125 C 32.578125 -61.457031 31 -57.097656 30.59375 -51.453125 L 62.703125 -51.453125 C 62.597656 -57.097656 61.117188 -61.457031 58.265625 -64.53125 C 55.421875 -67.601562 51.570312 -69.140625 46.71875 -69.140625 Z M 49.953125 1.5 C 36.453125 1.5 25.898438 -2.222656 18.296875 -9.671875 C 10.703125 -17.117188 6.90625 -27.671875 6.90625 -41.328125 C 6.90625 -55.367188 10.414062 -66.226562 17.4375 -73.90625 C 24.457031 -81.582031 34.171875 -85.421875 46.578125 -85.421875 C 58.421875 -85.421875 67.640625 -82.046875 74.234375 -75.296875 C 80.835938 -68.546875 84.140625 -59.222656 84.140625 -47.328125 L 84.140625 -36.21875 L 30.078125 -36.21875 C 30.328125 -29.71875 32.25 -24.644531 35.84375 -21 C 39.445312 -17.351562 44.5 -15.53125 51 -15.53125 C 56.050781 -15.53125 60.828125 -16.050781 65.328125 -17.09375 C 69.828125 -18.144531 74.523438 -19.820312 79.421875 -22.125 L 79.421875 -4.421875 C 75.421875 -2.421875 71.144531 -0.9375 66.59375 0.03125 C 62.039062 1.007812 56.492188 1.5 49.953125 1.5 Z M 49.953125 1.5 "/></g></g><g style="fill:#ffffff;fill-opacity:1;"><g transform="translate(344.255154, 458.869741)"><path style="stroke:none" d="M 33.96875 -45.59375 L 43.953125 -58.34375 L 67.421875 -83.84375 L 93.21875 -83.84375 L 59.921875 -47.46875 L 95.25 0 L 68.84375 0 L 44.703125 -33.96875 L 34.875 -26.09375 L 34.875 0 L 12 0 L 12 -116.6875 L 34.875 -116.6875 L 34.875 -64.640625 L 33.671875 -45.59375 Z M 33.96875 -45.59375 "/></g></g><g style="fill:#010000;fill-opacity:1;"><g transform="translate(460.160644, 454.768721)"><path style="stroke:none" d="M 83.359375 0 L 62.03125 0 L 62.03125 -45.671875 C 62.03125 -56.953125 57.835938 -62.59375 49.453125 -62.59375 C 43.484375 -62.59375 39.164062 -60.5625 36.5 -56.5 C 33.84375 -52.445312 32.515625 -45.875 32.515625 -36.78125 L 32.515625 0 L 11.1875 0 L 11.1875 -108.828125 L 32.515625 -108.828125 L 32.515625 -86.65625 C 32.515625 -84.925781 32.351562 -80.867188 32.03125 -74.484375 L 31.546875 -68.1875 L 32.65625 -68.1875 C 37.414062 -75.832031 44.972656 -79.65625 55.328125 -79.65625 C 64.503906 -79.65625 71.46875 -77.179688 76.21875 -72.234375 C 80.976562 -67.296875 83.359375 -60.210938 83.359375 -50.984375 Z M 83.359375 0 "/></g></g><g style="fill:#010000;fill-opacity:1;"><g transform="translate(549.71532, 454.768721)"><path style="stroke:none" d="M 66.578125 0 L 63.71875 -10 L 62.59375 -10 C 60.3125 -6.363281 57.070312 -3.550781 52.875 -1.5625 C 48.675781 0.414062 43.894531 1.40625 38.53125 1.40625 C 29.351562 1.40625 22.429688 -1.050781 17.765625 -5.96875 C 13.097656 -10.894531 10.765625 -17.972656 10.765625 -27.203125 L 10.765625 -78.1875 L 32.109375 -78.1875 L 32.109375 -32.515625 C 32.109375 -26.878906 33.109375 -22.648438 35.109375 -19.828125 C 37.109375 -17.003906 40.300781 -15.59375 44.6875 -15.59375 C 50.65625 -15.59375 54.96875 -17.585938 57.625 -21.578125 C 60.28125 -25.566406 61.609375 -32.175781 61.609375 -41.40625 L 61.609375 -78.1875 L 82.953125 -78.1875 L 82.953125 0 Z M 66.578125 0 "/></g></g><g style="fill:#010000;fill-opacity:1;"><g transform="translate(639.269995, 454.768721)"><path style="stroke:none" d="M 54.6875 -79.65625 C 63.925781 -79.65625 71.15625 -76.050781 76.375 -68.84375 C 81.59375 -61.644531 84.203125 -51.773438 84.203125 -39.234375 C 84.203125 -26.316406 81.507812 -16.3125 76.125 -9.21875 C 70.738281 -2.132812 63.40625 1.40625 54.125 1.40625 C 44.945312 1.40625 37.742188 -1.929688 32.515625 -8.609375 L 31.046875 -8.609375 L 27.484375 0 L 11.1875 0 L 11.1875 -108.828125 L 32.515625 -108.828125 L 32.515625 -83.5 C 32.515625 -80.289062 32.238281 -75.140625 31.6875 -68.046875 L 32.515625 -68.046875 C 37.503906 -75.785156 44.894531 -79.65625 54.6875 -79.65625 Z M 47.84375 -62.59375 C 42.570312 -62.59375 38.722656 -60.972656 36.296875 -57.734375 C 33.867188 -54.492188 32.609375 -49.144531 32.515625 -41.6875 L 32.515625 -39.375 C 32.515625 -30.976562 33.757812 -24.960938 36.25 -21.328125 C 38.75 -17.691406 42.707031 -15.875 48.125 -15.875 C 52.5 -15.875 55.976562 -17.890625 58.5625 -21.921875 C 61.15625 -25.953125 62.453125 -31.816406 62.453125 -39.515625 C 62.453125 -47.210938 61.144531 -52.984375 58.53125 -56.828125 C 55.925781 -60.671875 52.363281 -62.59375 47.84375 -62.59375 Z M 47.84375 -62.59375 "/></g></g></g></svg>