<svg xmlns="http://www.w3.org/2000/svg" xmlns:xlink="http://www.w3.org/1999/xlink" width="350" zoomAndPan="magnify" viewBox="0 0 262.5 110.999996" height="148" preserveAspectRatio="xMidYMid meet" version="1.2"><defs><clipPath id="5fe8bc86f7"><path d="M 0 0.105469 L 262 0.105469 L 262 110.894531 L 0 110.894531 Z M 0 0.105469 "/></clipPath><clipPath id="4c8243ddcb"><path d="M 149.464844 18.9375 L 252.292969 18.9375 L 252.292969 92.0625 L 149.464844 92.0625 Z M 149.464844 18.9375 "/></clipPath><clipPath id="cf2c8dc2d8"><path d="M 159.234375 18.9375 L 242.25 18.9375 C 247.648438 18.9375 252.023438 23.3125 252.023438 28.710938 L 252.023438 82.289062 C 252.023438 87.6875 247.648438 92.0625 242.25 92.0625 L 159.234375 92.0625 C 153.839844 92.0625 149.464844 87.6875 149.464844 82.289062 L 149.464844 28.710938 C 149.464844 23.3125 153.839844 18.9375 159.234375 18.9375 Z M 159.234375 18.9375 "/></clipPath></defs><g id="9989567215"><g clip-rule="nonzero" clip-path="url(#5fe8bc86f7)"><path style=" stroke:none;fill-rule:nonzero;fill:#ffffff;fill-opacity:1;" d="M 0 0.105469 L 262 0.105469 L 262 110.894531 L 0 110.894531 Z M 0 0.105469 "/><path style=" stroke:none;fill-rule:nonzero;fill:#010000;fill-opacity:1;" d="M 0 0.105469 L 262 0.105469 L 262 110.894531 L 0 110.894531 Z M 0 0.105469 "/></g><g clip-rule="nonzero" clip-path="url(#4c8243ddcb)"><g clip-rule="nonzero" clip-path="url(#cf2c8dc2d8)"><path style=" stroke:none;fill-rule:nonzero;fill:#f5961d;fill-opacity:1;" d="M 149.464844 18.9375 L 252.007812 18.9375 L 252.007812 92.0625 L 149.464844 92.0625 Z M 149.464844 18.9375 "/></g></g><g style="fill:#ffffff;fill-opacity:1;"><g transform="translate(9.105085, 74.630666)"><path style="stroke:none" d="M 19.6875 -21.859375 L 35.125 -21.859375 L 35.125 -1.671875 C 32.625 -0.859375 30.269531 -0.289062 28.0625 0.03125 C 25.851562 0.363281 23.59375 0.53125 21.28125 0.53125 C 15.40625 0.53125 10.914062 -1.191406 7.8125 -4.640625 C 4.71875 -8.097656 3.171875 -13.054688 3.171875 -19.515625 C 3.171875 -25.804688 4.96875 -30.707031 8.5625 -34.21875 C 12.15625 -37.738281 17.140625 -39.5 23.515625 -39.5 C 27.515625 -39.5 31.367188 -38.695312 35.078125 -37.09375 L 32.328125 -30.5 C 29.492188 -31.914062 26.539062 -32.625 23.46875 -32.625 C 19.894531 -32.625 17.035156 -31.425781 14.890625 -29.03125 C 12.742188 -26.632812 11.671875 -23.410156 11.671875 -19.359375 C 11.671875 -15.140625 12.535156 -11.914062 14.265625 -9.6875 C 15.992188 -7.457031 18.507812 -6.34375 21.8125 -6.34375 C 23.53125 -6.34375 25.28125 -6.519531 27.0625 -6.875 L 27.0625 -15 L 19.6875 -15 Z M 19.6875 -21.859375 "/></g></g><g style="fill:#ffffff;fill-opacity:1;"><g transform="translate(46.857157, 74.630666)"><path style="stroke:none" d="M 16.59375 -24.5625 C 14.875 -24.5625 13.523438 -24.015625 12.546875 -22.921875 C 11.566406 -21.828125 11.003906 -20.273438 10.859375 -18.265625 L 22.265625 -18.265625 C 22.234375 -20.273438 21.707031 -21.828125 20.6875 -22.921875 C 19.675781 -24.015625 18.3125 -24.5625 16.59375 -24.5625 Z M 17.734375 0.53125 C 12.941406 0.53125 9.195312 -0.789062 6.5 -3.4375 C 3.800781 -6.082031 2.453125 -9.828125 2.453125 -14.671875 C 2.453125 -19.660156 3.695312 -23.519531 6.1875 -26.25 C 8.6875 -28.976562 12.140625 -30.34375 16.546875 -30.34375 C 20.753906 -30.34375 24.03125 -29.140625 26.375 -26.734375 C 28.71875 -24.335938 29.890625 -21.03125 29.890625 -16.8125 L 29.890625 -12.859375 L 10.6875 -12.859375 C 10.769531 -10.554688 11.453125 -8.753906 12.734375 -7.453125 C 14.015625 -6.160156 15.804688 -5.515625 18.109375 -5.515625 C 19.898438 -5.515625 21.59375 -5.695312 23.1875 -6.0625 C 24.789062 -6.4375 26.460938 -7.035156 28.203125 -7.859375 L 28.203125 -1.578125 C 26.785156 -0.859375 25.269531 -0.328125 23.65625 0.015625 C 22.039062 0.359375 20.066406 0.53125 17.734375 0.53125 Z M 17.734375 0.53125 "/></g></g><g style="fill:#ffffff;fill-opacity:1;"><g transform="translate(77.338235, 74.630666)"><path style="stroke:none" d="M 16.59375 -24.5625 C 14.875 -24.5625 13.523438 -24.015625 12.546875 -22.921875 C 11.566406 -21.828125 11.003906 -20.273438 10.859375 -18.265625 L 22.265625 -18.265625 C 22.234375 -20.273438 21.707031 -21.828125 20.6875 -22.921875 C 19.675781 -24.015625 18.3125 -24.5625 16.59375 -24.5625 Z M 17.734375 0.53125 C 12.941406 0.53125 9.195312 -0.789062 6.5 -3.4375 C 3.800781 -6.082031 2.453125 -9.828125 2.453125 -14.671875 C 2.453125 -19.660156 3.695312 -23.519531 6.1875 -26.25 C 8.6875 -28.976562 12.140625 -30.34375 16.546875 -30.34375 C 20.753906 -30.34375 24.03125 -29.140625 26.375 -26.734375 C 28.71875 -24.335938 29.890625 -21.03125 29.890625 -16.8125 L 29.890625 -12.859375 L 10.6875 -12.859375 C 10.769531 -10.554688 11.453125 -8.753906 12.734375 -7.453125 C 14.015625 -6.160156 15.804688 -5.515625 18.109375 -5.515625 C 19.898438 -5.515625 21.59375 -5.695312 23.1875 -6.0625 C 24.789062 -6.4375 26.460938 -7.035156 28.203125 -7.859375 L 28.203125 -1.578125 C 26.785156 -0.859375 25.269531 -0.328125 23.65625 0.015625 C 22.039062 0.359375 20.066406 0.53125 17.734375 0.53125 Z M 17.734375 0.53125 "/></g></g><g style="fill:#ffffff;fill-opacity:1;"><g transform="translate(107.819313, 74.630666)"><path style="stroke:none" d="M 12.0625 -16.1875 L 15.609375 -20.71875 L 23.9375 -29.78125 L 33.109375 -29.78125 L 21.28125 -16.859375 L 33.828125 0 L 24.453125 0 L 15.875 -12.0625 L 12.390625 -9.265625 L 12.390625 0 L 4.265625 0 L 4.265625 -41.4375 L 12.390625 -41.4375 L 12.390625 -22.953125 L 11.953125 -16.1875 Z M 12.0625 -16.1875 "/></g></g><g style="fill:#010000;fill-opacity:1;"><g transform="translate(152.844461, 75.218367)"><path style="stroke:none" d="M 29.609375 0 L 22.03125 0 L 22.03125 -16.21875 C 22.03125 -20.21875 20.539062 -22.21875 17.5625 -22.21875 C 15.4375 -22.21875 13.898438 -21.5 12.953125 -20.0625 C 12.015625 -18.625 11.546875 -16.289062 11.546875 -13.0625 L 11.546875 0 L 3.96875 0 L 3.96875 -38.640625 L 11.546875 -38.640625 L 11.546875 -30.765625 C 11.546875 -30.148438 11.488281 -28.710938 11.375 -26.453125 L 11.203125 -24.21875 L 11.59375 -24.21875 C 13.28125 -26.925781 15.960938 -28.28125 19.640625 -28.28125 C 22.898438 -28.28125 25.375 -27.398438 27.0625 -25.640625 C 28.757812 -23.890625 29.609375 -21.378906 29.609375 -18.109375 Z M 29.609375 0 "/></g></g><g style="fill:#010000;fill-opacity:1;"><g transform="translate(184.647872, 75.218367)"><path style="stroke:none" d="M 23.640625 0 L 22.625 -3.546875 L 22.21875 -3.546875 C 21.414062 -2.253906 20.269531 -1.253906 18.78125 -0.546875 C 17.289062 0.148438 15.59375 0.5 13.6875 0.5 C 10.425781 0.5 7.96875 -0.375 6.3125 -2.125 C 4.65625 -3.875 3.828125 -6.382812 3.828125 -9.65625 L 3.828125 -27.765625 L 11.40625 -27.765625 L 11.40625 -11.546875 C 11.40625 -9.546875 11.757812 -8.039062 12.46875 -7.03125 C 13.175781 -6.03125 14.3125 -5.53125 15.875 -5.53125 C 17.988281 -5.53125 19.515625 -6.238281 20.453125 -7.65625 C 21.398438 -9.070312 21.875 -11.421875 21.875 -14.703125 L 21.875 -27.765625 L 29.453125 -27.765625 L 29.453125 0 Z M 23.640625 0 "/></g></g><g style="fill:#010000;fill-opacity:1;"><g transform="translate(216.451283, 75.218367)"><path style="stroke:none" d="M 19.421875 -28.28125 C 22.703125 -28.28125 25.269531 -27 27.125 -24.4375 C 28.976562 -21.882812 29.90625 -18.382812 29.90625 -13.9375 C 29.90625 -9.34375 28.945312 -5.785156 27.03125 -3.265625 C 25.113281 -0.753906 22.507812 0.5 19.21875 0.5 C 15.957031 0.5 13.398438 -0.679688 11.546875 -3.046875 L 11.03125 -3.046875 L 9.765625 0 L 3.96875 0 L 3.96875 -38.640625 L 11.546875 -38.640625 L 11.546875 -29.65625 C 11.546875 -28.507812 11.445312 -26.675781 11.25 -24.15625 L 11.546875 -24.15625 C 13.316406 -26.90625 15.941406 -28.28125 19.421875 -28.28125 Z M 16.984375 -22.21875 C 15.117188 -22.21875 13.753906 -21.644531 12.890625 -20.5 C 12.023438 -19.351562 11.578125 -17.453125 11.546875 -14.796875 L 11.546875 -13.984375 C 11.546875 -11.003906 11.988281 -8.867188 12.875 -7.578125 C 13.757812 -6.285156 15.160156 -5.640625 17.078125 -5.640625 C 18.640625 -5.640625 19.878906 -6.351562 20.796875 -7.78125 C 21.710938 -9.21875 22.171875 -11.300781 22.171875 -14.03125 C 22.171875 -16.757812 21.707031 -18.804688 20.78125 -20.171875 C 19.851562 -21.535156 18.585938 -22.21875 16.984375 -22.21875 Z M 16.984375 -22.21875 "/></g></g></g></svg>